<svg width="14" height="10" viewBox="0 0 14 10" fill="none" xmlns="http://www.w3.org/2000/svg">
<path fill-rule="evenodd" clip-rule="evenodd" d="M-1.96729e-07 5.0001C-2.02525e-07 4.86749 0.0526782 4.74032 0.146446 4.64655C0.240215 4.55278 0.367392 4.5001 0.5 4.5001L12.293 4.5001L9.146 1.3541C9.05211 1.26021 8.99937 1.13288 8.99937 1.0001C8.99937 0.867325 9.05211 0.739987 9.146 0.646101C9.23989 0.552214 9.36722 0.499469 9.5 0.499469C9.63278 0.499469 9.76011 0.552214 9.854 0.646101L13.854 4.6461C13.9006 4.69255 13.9375 4.74772 13.9627 4.80847C13.9879 4.86921 14.0009 4.93433 14.0009 5.0001C14.0009 5.06587 13.9879 5.13099 13.9627 5.19173C13.9375 5.25248 13.9006 5.30765 13.854 5.3541L9.854 9.3541C9.76011 9.44799 9.63278 9.50073 9.5 9.50073C9.36722 9.50073 9.23989 9.44799 9.146 9.3541C9.05211 9.26021 8.99937 9.13288 8.99937 9.0001C8.99937 8.86732 9.05211 8.73999 9.146 8.6461L12.293 5.5001L0.5 5.5001C0.367392 5.5001 0.240215 5.44742 0.146446 5.35365C0.0526782 5.25989 -1.90932e-07 5.13271 -1.96729e-07 5.0001V5.0001Z" fill="white"/>
</svg>
