<svg width="32" height="32" viewBox="0 0 32 32" fill="none" xmlns="http://www.w3.org/2000/svg">
<path d="M31.1429 29.0443L21.252 19.1534C22.7869 17.1691 23.6171 14.743 23.6171 12.1913C23.6171 9.13679 22.425 6.27273 20.2694 4.11326C18.1137 1.95378 15.242 0.765503 12.1913 0.765503C9.14066 0.765503 6.26898 1.95759 4.11332 4.11326C1.95385 6.26892 0.765564 9.13679 0.765564 12.1913C0.765564 15.242 1.95765 18.1136 4.11332 20.2693C6.26898 22.4288 9.13685 23.6171 12.1913 23.6171C14.7431 23.6171 17.1654 22.7868 19.1497 21.2557L29.0406 31.1429C29.0696 31.1719 29.104 31.1949 29.1419 31.2106C29.1798 31.2263 29.2204 31.2344 29.2615 31.2344C29.3025 31.2344 29.3431 31.2263 29.381 31.2106C29.4189 31.1949 29.4534 31.1719 29.4824 31.1429L31.1429 29.4861C31.1719 29.4571 31.195 29.4227 31.2107 29.3848C31.2264 29.3469 31.2345 29.3062 31.2345 29.2652C31.2345 29.2242 31.2264 29.1836 31.2107 29.1457C31.195 29.1078 31.1719 29.0733 31.1429 29.0443V29.0443ZM18.2242 18.2241C16.6093 19.8351 14.4689 20.7225 12.1913 20.7225C9.91381 20.7225 7.77338 19.8351 6.15853 18.2241C4.5475 16.6093 3.6601 14.4688 3.6601 12.1913C3.6601 9.91375 4.5475 7.76951 6.15853 6.15847C7.77338 4.54744 9.91381 3.66003 12.1913 3.66003C14.4689 3.66003 16.6131 4.54363 18.2242 6.15847C19.8352 7.77332 20.7226 9.91375 20.7226 12.1913C20.7226 14.4688 19.8352 16.6131 18.2242 18.2241Z" fill="white"/>
</svg>
